<?xml version="1.0" encoding="utf-8"?>
<!-- Generator: Adobe Illustrator 16.0.0, SVG Export Plug-In . SVG Version: 6.00 Build 0)  -->
<!DOCTYPE svg PUBLIC "-//W3C//DTD SVG 1.1//EN" "http://www.w3.org/Graphics/SVG/1.1/DTD/svg11.dtd">
<svg version="1.1" id="Layer_1" xmlns="http://www.w3.org/2000/svg" xmlns:xlink="http://www.w3.org/1999/xlink" x="0px" y="0px"
	 width="267.23px" height="148px" viewBox="0 0 267.23 148" enable-background="new 0 0 267.23 148" xml:space="preserve">
<g>
	<path fill="#FFFFFF" d="M49.146,42.653c0.274-2.13,0.313-3.819,0.114-5.067c-0.198-1.247-0.7-2.138-1.507-2.67
		s-2.031-0.8-3.674-0.8h-1.507c-0.974,0-1.734,0.085-2.282,0.251c-0.548,0.168-0.974,0.519-1.278,1.051
		c-0.305,0.533-0.609,1.362-0.913,2.487l-6.071,22.643c-0.273,1.096-0.365,1.917-0.273,2.465c0.091,0.548,0.44,0.913,1.049,1.095
		c0.609,0.184,1.554,0.305,2.831,0.366l-0.228,0.913c-0.884-0.061-2.025-0.099-3.424-0.114c-1.4-0.016-2.815-0.023-4.246-0.023
		c-1.4,0-2.709,0.008-3.926,0.023c-1.216,0.016-2.19,0.054-2.921,0.114l0.182-0.913c1.036-0.062,1.841-0.183,2.42-0.366
		c0.577-0.182,1.034-0.547,1.369-1.095s0.64-1.369,0.913-2.465l6.071-22.643c0.457-1.673,0.51-2.73,0.16-3.172
		c-0.351-0.441-1.286-0.692-2.808-0.754l0.229-0.912c1.582,0.03,3.294,0.061,5.135,0.091c1.842,0.031,3.576,0.046,5.204,0.046
		s2.929,0,3.904,0c1.368,0,2.904-0.008,4.609-0.023c1.704-0.015,3.257-0.053,4.656-0.113c-0.396,1.126-0.753,2.16-1.072,3.104
		c-0.319,0.943-0.571,1.795-0.754,2.556c-0.213,0.761-0.395,1.477-0.547,2.146s-0.29,1.263-0.411,1.78H49.146z M32.759,49.866
		l0.182-0.914h9.404l-0.229,0.914H32.759z M37.643,48.952c1.187,0,2.16-0.296,2.922-0.89c0.76-0.594,1.393-1.323,1.895-2.19
		c0.501-0.868,0.936-1.728,1.3-2.58h1.051c-0.519,1.521-0.883,2.709-1.096,3.561c-0.213,0.853-0.427,1.705-0.64,2.557
		c-0.213,0.822-0.427,1.728-0.639,2.716c-0.213,0.989-0.487,2.307-0.822,3.949h-1.049c0.091-1.156,0.098-2.199,0.022-3.128
		c-0.076-0.927-0.358-1.673-0.845-2.236c-0.487-0.563-1.309-0.844-2.465-0.844L37.643,48.952z"/>
	<path fill="#FFFFFF" d="M73.561,49.905c0.212-1.795,0.212-3.218,0-4.268c-0.215-1.05-0.686-1.795-1.416-2.236
		s-1.825-0.663-3.286-0.663h-2.055c-1.034,0-1.834,0.085-2.396,0.252c-0.563,0.167-1.004,0.519-1.323,1.05
		c-0.32,0.533-0.633,1.362-0.937,2.488L56.076,69.17c-0.427,1.675-0.473,2.724-0.137,3.15c0.334,0.426,1.278,0.639,2.83,0.639h2.237
		c1.734,0,3.165-0.259,4.291-0.775c1.125-0.518,2.115-1.362,2.966-2.534c0.853-1.172,1.69-2.762,2.512-4.771h1.005
		c-0.153,0.396-0.313,0.884-0.48,1.461c-0.167,0.579-0.327,1.187-0.479,1.825c-0.153,0.579-0.351,1.409-0.594,2.488
		c-0.244,1.081-0.457,2.199-0.64,3.355c-1.551-0.061-3.294-0.099-5.226-0.113c-1.934-0.016-3.66-0.024-5.182-0.024
		c-0.975,0-2.275,0-3.903,0s-3.363,0.009-5.203,0.024c-1.843,0.015-3.554,0.053-5.136,0.113l0.182-0.913
		c1.036-0.061,1.841-0.183,2.42-0.365c0.577-0.183,1.034-0.547,1.369-1.096c0.335-0.548,0.64-1.369,0.913-2.465l6.071-22.642
		c0.457-1.674,0.51-2.731,0.16-3.173c-0.351-0.44-1.286-0.691-2.808-0.754l0.229-0.912c1.582,0.03,3.294,0.062,5.135,0.091
		c1.842,0.031,3.576,0.046,5.204,0.046s2.929,0,3.904,0c1.368,0,2.904-0.007,4.609-0.022c1.704-0.016,3.257-0.053,4.656-0.114
		c-0.396,1.065-0.738,2.046-1.026,2.943c-0.29,0.898-0.525,1.712-0.708,2.443c-0.152,0.547-0.281,1.072-0.388,1.574
		c-0.107,0.503-0.191,0.921-0.251,1.255H73.561z M56.67,58.215l0.229-0.913h8.627l-0.228,0.913H56.67z M61.417,57.302
		c1.188,0,2.169-0.305,2.945-0.913c0.775-0.609,1.414-1.354,1.917-2.237c0.502-0.882,0.919-1.719,1.255-2.51h1.005
		c-0.487,1.521-0.838,2.709-1.051,3.56c-0.213,0.853-0.441,1.705-0.685,2.557c-0.122,0.548-0.251,1.081-0.388,1.598
		c-0.137,0.518-0.273,1.126-0.41,1.826c-0.138,0.7-0.313,1.598-0.525,2.693h-1.05c0.091-0.852,0.105-1.719,0.045-2.603
		c-0.062-0.882-0.343-1.613-0.845-2.191c-0.502-0.577-1.377-0.866-2.624-0.866L61.417,57.302z"/>
	<path fill="#FFFFFF" d="M80.643,58.539c-1.004,1.431-1.56,2.572-1.666,3.424c-0.107,0.853,0.166,1.469,0.821,1.85
		c0.654,0.38,1.59,0.6,2.808,0.661l-0.183,0.913c-1.156-0.061-2.199-0.099-3.127-0.114c-0.929-0.016-1.803-0.023-2.625-0.023
		c-0.699,0-1.293,0.008-1.78,0.023c-0.486,0.016-0.974,0.054-1.461,0.114l0.229-0.913c0.73-0.183,1.469-0.608,2.214-1.278
		c0.746-0.669,1.666-1.765,2.762-3.287l19.265-27.069c0.273,0.031,0.57,0.046,0.89,0.046s0.616-0.015,0.89-0.046l1.826,28.713
		c0.092,1.096,0.373,1.849,0.845,2.261c0.472,0.41,0.936,0.631,1.393,0.661l-0.183,0.913c-0.73-0.061-1.666-0.099-2.808-0.114
		s-2.229-0.023-3.264-0.023c-1.278,0-2.496,0.008-3.652,0.023s-2.07,0.054-2.739,0.114l0.183-0.913
		c1.461-0.062,2.495-0.327,3.104-0.799c0.608-0.472,0.883-1.484,0.822-3.036l-1.188-21.546l1.188-1.096L80.643,58.539z
		 M84.705,52.239h13.33l-0.365,0.913H83.883L84.705,52.239z"/>
	<path fill="#FFFFFF" d="M134.646,41.37c-0.305,0.791-0.708,1.939-1.21,3.446s-0.997,3.462-1.484,5.865h-0.912
		c0.183-0.882,0.273-1.734,0.273-2.557c0-1.764-0.532-3.218-1.598-4.358c-1.065-1.142-2.709-1.712-4.931-1.712
		c-1.613,0-2.982,0.418-4.107,1.255c-1.127,0.838-1.689,2.169-1.689,3.994c0,1.341,0.372,2.587,1.118,3.743
		c0.745,1.157,1.667,2.291,2.762,3.401c1.096,1.111,2.192,2.236,3.287,3.378c1.095,1.141,2.008,2.344,2.738,3.606
		c0.731,1.263,1.097,2.655,1.097,4.177c0,1.613-0.389,2.99-1.165,4.131c-0.775,1.142-1.772,2.07-2.989,2.785
		c-1.218,0.715-2.534,1.248-3.949,1.597c-1.415,0.351-2.792,0.525-4.131,0.525c-1.369,0-2.503-0.099-3.4-0.296
		c-0.898-0.198-1.652-0.464-2.261-0.8c-0.608-0.334-1.202-0.669-1.78-1.004c-0.304-0.243-0.601-0.418-0.89-0.525
		c-0.29-0.105-0.524-0.159-0.707-0.159c-0.396,0-0.724,0.19-0.981,0.571c-0.26,0.38-0.571,1.012-0.936,1.894h-0.914
		c0.427-0.974,0.884-2.252,1.37-3.834s1.064-3.956,1.734-7.121h0.913c-0.122,0.578-0.229,1.18-0.319,1.803
		c-0.092,0.624-0.122,1.24-0.092,1.849c0.092,2.131,0.753,3.774,1.986,4.93c1.232,1.158,3.051,1.735,5.455,1.735
		c2.037,0,3.575-0.434,4.609-1.301c1.034-0.868,1.554-2.138,1.554-3.812c0-1.521-0.336-2.892-1.005-4.109
		c-0.67-1.217-1.499-2.351-2.488-3.4s-1.979-2.115-2.967-3.195c-0.989-1.08-1.826-2.244-2.512-3.492
		c-0.684-1.247-1.026-2.678-1.026-4.291c0-1.521,0.327-2.846,0.981-3.972s1.506-2.062,2.557-2.808
		c1.049-0.745,2.214-1.308,3.492-1.688c1.277-0.38,2.541-0.57,3.789-0.57c1.643,0,2.996,0.197,4.063,0.593
		c1.064,0.396,1.978,0.868,2.738,1.415c0.335,0.214,0.632,0.388,0.891,0.524c0.259,0.138,0.464,0.206,0.616,0.206
		c0.426,0,0.928-0.806,1.507-2.419H134.646z"/>
	<path fill="#FFFFFF" d="M168.79,26.813c0.973,0,1.719,0.29,2.236,0.868c0.517,0.578,0.776,1.263,0.776,2.054
		c0,0.853-0.252,1.613-0.754,2.282c-0.501,0.67-1.194,1.218-2.076,1.644c-0.854,0.456-1.902,0.807-3.15,1.051
		c-1.248,0.243-2.692,0.364-4.336,0.364c-1.553,0-3.196-0.099-4.931-0.296c-1.735-0.198-3.47-0.396-5.204-0.594
		c-1.734-0.197-3.362-0.297-4.884-0.297c-1.005,0-1.979,0.054-2.922,0.159c-0.943,0.107-1.689,0.313-2.237,0.617
		c0.608,0.243,1.118,0.67,1.529,1.277c0.411,0.609,0.616,1.31,0.616,2.1c0,0.884-0.281,1.667-0.845,2.352
		c-0.563,0.685-1.331,1.027-2.305,1.027c-0.913,0-1.613-0.304-2.1-0.913c-0.487-0.608-0.73-1.339-0.73-2.191
		c0-0.699,0.19-1.438,0.57-2.214c0.381-0.775,1.119-1.438,2.214-1.986c0.7-0.334,1.445-0.577,2.236-0.729
		c0.792-0.152,1.537-0.244,2.237-0.274s1.248-0.045,1.644-0.045c1.856,0,3.651,0.091,5.387,0.273
		c1.734,0.183,3.438,0.365,5.112,0.548c1.673,0.183,3.332,0.273,4.976,0.273c1.279,0,2.351-0.068,3.218-0.205
		c0.868-0.137,1.637-0.357,2.306-0.662l-0.091,0.365c-0.396-0.365-0.769-0.844-1.118-1.438c-0.351-0.594-0.525-1.285-0.525-2.077
		c0-0.913,0.281-1.696,0.845-2.352C167.047,27.141,167.814,26.813,168.79,26.813z M152.174,33.935
		c0.821,0.062,1.536,0.122,2.146,0.182c0.607,0.062,1.216,0.123,1.825,0.183c0.608,0.062,1.309,0.122,2.1,0.183l-6.756,25.609
		c-0.487,1.705-0.502,2.839-0.046,3.401c0.457,0.563,1.613,0.891,3.47,0.981l-0.183,0.913c-0.912-0.061-2.077-0.099-3.492-0.114
		s-2.884-0.023-4.405-0.023c-1.491,0-2.921,0.008-4.29,0.023c-1.37,0.016-2.466,0.054-3.287,0.114l0.183-0.913
		c1.277-0.062,2.274-0.22,2.989-0.479c0.715-0.258,1.278-0.699,1.689-1.323c0.41-0.624,0.783-1.484,1.118-2.58L152.174,33.935z"/>
	<path fill="#FFFFFF" d="M62.875,87.91c-0.305,0.791-0.708,1.939-1.21,3.445c-0.502,1.507-0.997,3.463-1.483,5.866h-0.913
		c0.183-0.882,0.273-1.734,0.273-2.557c0-1.764-0.532-3.218-1.597-4.359c-1.065-1.141-2.709-1.712-4.931-1.712
		c-1.614,0-2.982,0.419-4.108,1.256c-1.127,0.838-1.688,2.168-1.688,3.994c0,1.34,0.371,2.587,1.117,3.743
		c0.746,1.157,1.667,2.29,2.763,3.401c1.095,1.111,2.191,2.236,3.287,3.377c1.095,1.142,2.007,2.345,2.738,3.606
		c0.73,1.264,1.096,2.655,1.096,4.178c0,1.613-0.389,2.989-1.164,4.131c-0.776,1.141-1.773,2.069-2.989,2.784
		c-1.219,0.716-2.534,1.248-3.95,1.598c-1.414,0.35-2.792,0.525-4.131,0.525c-1.369,0-2.503-0.099-3.4-0.297
		c-0.898-0.198-1.652-0.463-2.26-0.799c-0.609-0.335-1.202-0.669-1.78-1.004c-0.305-0.243-0.602-0.419-0.89-0.525
		c-0.29-0.105-0.525-0.159-0.708-0.159c-0.396,0-0.724,0.19-0.981,0.57c-0.259,0.381-0.571,1.013-0.936,1.895h-0.913
		c0.426-0.975,0.883-2.252,1.369-3.835c0.486-1.582,1.064-3.955,1.734-7.121h0.913c-0.122,0.578-0.228,1.181-0.319,1.803
		c-0.091,0.624-0.122,1.241-0.091,1.849c0.091,2.131,0.753,3.774,1.985,4.931c1.233,1.157,3.051,1.734,5.455,1.734
		c2.038,0,3.575-0.434,4.61-1.301c1.034-0.867,1.552-2.138,1.552-3.812c0-1.521-0.335-2.891-1.004-4.108
		c-0.67-1.217-1.499-2.351-2.488-3.4s-1.978-2.115-2.967-3.196c-0.989-1.08-1.825-2.243-2.511-3.491
		c-0.685-1.248-1.026-2.678-1.026-4.292c0-1.521,0.326-2.845,0.98-3.971s1.507-2.062,2.557-2.808
		c1.05-0.745,2.214-1.309,3.493-1.688c1.277-0.381,2.54-0.57,3.788-0.57c1.643,0,2.996,0.197,4.063,0.593
		c1.064,0.396,1.978,0.867,2.739,1.414c0.335,0.214,0.631,0.389,0.891,0.525c0.258,0.138,0.463,0.206,0.615,0.206
		c0.426,0,0.929-0.806,1.507-2.419H62.875z"/>
	<path fill="#FFFFFF" d="M70.863,107.087c-0.428,1.675-0.473,2.732-0.138,3.173c0.334,0.441,1.278,0.692,2.831,0.753l-0.183,0.913
		c-0.792-0.06-1.797-0.099-3.013-0.113c-1.218-0.016-2.45-0.023-3.698-0.023c-1.399,0-2.701,0.008-3.903,0.023
		c-1.202,0.015-2.198,0.054-2.989,0.113l0.228-0.913c1.005-0.061,1.788-0.183,2.352-0.365c0.563-0.182,1.012-0.547,1.346-1.095
		c0.335-0.548,0.64-1.37,0.914-2.466l6.025-22.642c0.425-1.673,0.464-2.731,0.114-3.173c-0.351-0.44-1.286-0.691-2.808-0.753
		l0.229-0.912c0.73,0.03,1.712,0.061,2.943,0.091c1.233,0.03,2.55,0.046,3.949,0.046c1.247,0,2.472-0.016,3.675-0.046
		c1.202-0.03,2.229-0.061,3.081-0.091L81.59,80.52c-1.034,0.031-1.842,0.145-2.419,0.343c-0.578,0.198-1.027,0.563-1.347,1.096
		s-0.632,1.361-0.936,2.487L70.863,107.087z M72.004,96.132l0.32-0.913h16.113l-0.364,0.913H72.004z M89.716,84.445
		c0.457-1.673,0.503-2.731,0.137-3.173c-0.365-0.44-1.309-0.691-2.83-0.753l0.229-0.912c0.791,0.03,1.795,0.061,3.013,0.091
		c1.217,0.03,2.45,0.046,3.698,0.046c1.398,0,2.716-0.016,3.948-0.046s2.229-0.061,2.989-0.091l-0.229,0.912
		c-1.034,0.031-1.841,0.145-2.419,0.343s-1.027,0.563-1.347,1.096s-0.632,1.361-0.936,2.487l-6.026,22.642
		c-0.426,1.675-0.472,2.732-0.137,3.173c0.335,0.441,1.278,0.692,2.831,0.753l-0.183,0.913c-0.73-0.06-1.712-0.099-2.944-0.113
		c-1.232-0.016-2.55-0.023-3.949-0.023c-1.248,0-2.48,0.008-3.697,0.023c-1.218,0.015-2.237,0.054-3.058,0.113l0.182-0.913
		c1.034-0.061,1.841-0.183,2.42-0.365c0.577-0.182,1.034-0.547,1.368-1.095c0.336-0.548,0.641-1.37,0.914-2.466L89.716,84.445z"/>
	<path fill="#FFFFFF" d="M100.716,113.701c-1.004,1.431-1.56,2.572-1.665,3.424c-0.107,0.852,0.167,1.469,0.821,1.849
		c0.654,0.381,1.589,0.601,2.807,0.661l-0.182,0.914c-1.157-0.061-2.199-0.1-3.127-0.114c-0.929-0.016-1.804-0.023-2.625-0.023
		c-0.7,0-1.293,0.008-1.78,0.023c-0.486,0.015-0.974,0.054-1.461,0.114l0.229-0.914c0.73-0.183,1.469-0.607,2.214-1.277
		c0.746-0.669,1.666-1.765,2.762-3.287l19.264-27.069c0.273,0.031,0.57,0.046,0.891,0.046c0.319,0,0.615-0.015,0.89-0.046
		l1.826,28.713c0.091,1.095,0.372,1.849,0.844,2.26c0.472,0.41,0.937,0.632,1.393,0.661l-0.183,0.914
		c-0.731-0.061-1.666-0.1-2.807-0.114c-1.142-0.016-2.23-0.023-3.265-0.023c-1.278,0-2.495,0.008-3.651,0.023
		c-1.157,0.015-2.07,0.054-2.74,0.114l0.183-0.914c1.461-0.061,2.495-0.326,3.104-0.798s0.883-1.484,0.821-3.036l-1.187-21.546
		l1.187-1.096L100.716,113.701z M104.779,107.401h13.329l-0.365,0.913h-13.785L104.779,107.401z"/>
	<path fill="#FFFFFF" d="M138.239,96.451l0.229-0.821h1.689c2.313,0,4.268-0.411,5.865-1.233c1.598-0.821,2.807-1.992,3.629-3.515
		c0.821-1.521,1.233-3.316,1.233-5.387c0-1.703-0.381-2.959-1.142-3.766c-0.761-0.806-1.963-1.21-3.606-1.21
		c-1.065,0-1.834,0.222-2.305,0.662c-0.473,0.442-0.875,1.317-1.21,2.625l-6.208,23.28c-0.245,0.943-0.382,1.689-0.411,2.237
		c-0.03,0.548,0.189,0.958,0.662,1.232c0.472,0.273,1.285,0.427,2.441,0.456l-0.183,0.913c-0.821-0.06-1.81-0.099-2.968-0.113
		c-1.155-0.016-2.389-0.023-3.696-0.023c-1.339,0-2.641,0.008-3.902,0.023c-1.264,0.015-2.275,0.054-3.036,0.113l0.183-0.913
		c1.034-0.061,1.84-0.183,2.42-0.365c0.577-0.182,1.034-0.547,1.368-1.095s0.639-1.37,0.914-2.466l6.025-22.642
		c0.242-0.942,0.365-1.696,0.365-2.26c0-0.562-0.229-0.974-0.685-1.232c-0.456-0.258-1.248-0.402-2.375-0.434l0.229-0.912
		c0.485,0.03,1.095,0.053,1.826,0.068c0.729,0.016,1.513,0.03,2.351,0.045c0.837,0.016,1.604,0.023,2.305,0.023
		c1.308,0,2.502-0.016,3.584-0.046c1.079-0.03,2.151-0.046,3.217-0.046c3.5,0,6.087,0.54,7.762,1.62
		c1.673,1.081,2.51,2.671,2.51,4.771c0,2.07-0.723,3.881-2.168,5.433c-1.446,1.552-3.463,2.762-6.048,3.629
		c-2.587,0.867-5.601,1.302-9.039,1.302L138.239,96.451z M138.879,95.767c1.156,0.03,2.091,0.076,2.808,0.137
		c0.715,0.062,1.308,0.114,1.78,0.159c0.471,0.046,0.936,0.114,1.392,0.206c1.581,0.152,2.951,0.427,4.109,0.821
		c1.156,0.396,2.031,1.004,2.624,1.826c0.593,0.821,0.783,1.994,0.57,3.516l-0.502,4.701c-0.122,0.944-0.085,1.751,0.114,2.42
		c0.198,0.67,0.632,0.989,1.301,0.958c0.577-0.029,1.08-0.342,1.506-0.936c0.427-0.594,0.837-1.438,1.233-2.533l0.228-0.64h1.051
		l-0.183,0.594c-0.549,1.888-1.324,3.286-2.329,4.199c-1.004,0.913-2.373,1.37-4.108,1.37c-1.917,0-3.285-0.479-4.107-1.438
		c-0.821-0.958-1.141-2.152-0.96-3.583l0.549-5.112c0.151-1.4,0.083-2.533-0.205-3.401c-0.29-0.867-0.959-1.507-2.009-1.917
		c-1.05-0.411-2.702-0.617-4.953-0.617L138.879,95.767z"/>
	<path fill="#FFFFFF" d="M168.14,115.709c-0.427,1.675-0.473,2.732-0.139,3.173c0.336,0.441,1.279,0.692,2.831,0.753l-0.183,0.914
		c-0.792-0.061-1.811-0.1-3.059-0.114c-1.248-0.016-2.525-0.023-3.833-0.023c-1.37,0-2.641,0.008-3.813,0.023
		c-1.171,0.015-2.137,0.054-2.897,0.114l0.228-0.914c1.004-0.061,1.787-0.183,2.351-0.365c0.563-0.182,1.012-0.547,1.348-1.095
		c0.334-0.548,0.639-1.369,0.912-2.466l6.025-22.642c0.427-1.673,0.464-2.73,0.115-3.172c-0.351-0.44-1.287-0.692-2.808-0.754
		l0.228-0.912c0.731,0.03,1.689,0.061,2.877,0.091c1.186,0.031,2.464,0.046,3.834,0.046c1.308,0,2.57-0.015,3.789-0.046
		c1.217-0.03,2.266-0.061,3.148-0.091l-0.228,0.912c-1.035,0.031-1.842,0.146-2.419,0.343c-0.579,0.198-1.028,0.563-1.348,1.096
		c-0.319,0.533-0.632,1.362-0.935,2.487L168.14,115.709z"/>
	<path fill="#FFFFFF" d="M176.4,114.437c0.853-0.03,1.59-0.267,2.214-0.707c0.624-0.441,1.18-1.027,1.667-1.758
		c0.881-1.399,1.771-3.591,2.67-6.573c0.897-2.981,1.811-6.588,2.739-10.818c0.927-4.23,1.863-8.871,2.807-13.924l0.775,0.959
		c-0.607,3.104-1.248,6.27-1.917,9.495c-0.67,3.226-1.362,6.284-2.077,9.176s-1.43,5.408-2.144,7.555
		c-0.717,2.146-1.424,3.675-2.124,4.588c-0.548,0.729-1.194,1.392-1.939,1.985c-0.747,0.593-1.728,0.891-2.944,0.891
		c-1.309,0-2.267-0.328-2.876-0.982s-0.914-1.453-0.914-2.396c0-1.034,0.336-1.939,1.005-2.715c0.67-0.777,1.553-1.165,2.648-1.165
		c0.912,0,1.582,0.244,2.009,0.73c0.425,0.487,0.639,1.05,0.639,1.689c0,0.883-0.268,1.658-0.8,2.327
		c-0.531,0.67-1.18,1.156-1.94,1.461c0.062,0.061,0.139,0.107,0.229,0.138C176.219,114.421,176.31,114.437,176.4,114.437z
		 M199.453,112.154l-11.275-26.934c-0.091-0.151-0.168-0.28-0.228-0.388c-0.063-0.105-0.123-0.234-0.183-0.388
		c0.242-1.126,0.327-1.955,0.251-2.487c-0.077-0.532-0.382-0.897-0.914-1.096c-0.531-0.198-1.392-0.312-2.578-0.343l0.228-0.912
		c0.487,0.03,1.088,0.061,1.804,0.091c0.715,0.03,1.467,0.046,2.259,0.046c1.432,0,2.663-0.046,3.699-0.137l9.311,23.372
		c-0.182,1.248-0.342,2.32-0.479,3.218c-0.137,0.898-0.273,1.803-0.411,2.716c-0.137,0.913-0.296,1.993-0.479,3.241H199.453z
		 M213.421,78.374c-0.821,0.031-1.544,0.268-2.168,0.708c-0.624,0.441-1.163,1.012-1.619,1.712
		c-1.401,2.069-2.831,5.706-4.292,10.909c-1.461,5.204-3.089,12.021-4.884,20.451l-0.64-1.278c0.547-2.557,1.164-5.333,1.849-8.331
		c0.686-2.997,1.407-5.941,2.168-8.833c0.761-2.891,1.559-5.507,2.397-7.852c0.836-2.343,1.695-4.153,2.579-5.432
		c0.577-0.821,1.262-1.514,2.054-2.077c0.791-0.563,1.749-0.845,2.875-0.845c1.28,0,2.222,0.327,2.831,0.981
		c0.607,0.655,0.912,1.438,0.912,2.351c0,1.065-0.334,1.986-1.003,2.763c-0.67,0.775-1.553,1.163-2.647,1.163
		c-0.883,0-1.546-0.243-1.987-0.73c-0.441-0.486-0.661-1.05-0.661-1.688c0-0.883,0.267-1.658,0.8-2.328
		c0.532-0.669,1.193-1.156,1.985-1.461c-0.091-0.061-0.176-0.105-0.251-0.137C213.643,78.391,213.543,78.374,213.421,78.374z"/>
	<path fill="#FFFFFF" d="M227.345,120.274c0.821,0,1.59-0.114,2.307-0.342c0.714-0.229,1.3-0.48,1.756-0.754
		c0.578-0.365,0.997-0.799,1.256-1.301s0.495-1.133,0.707-1.895l1.051-4.018c0.334-1.247,0.464-2.175,0.388-2.784
		c-0.076-0.607-0.41-1.02-1.005-1.232c-0.593-0.212-1.528-0.334-2.807-0.365l0.228-0.913c0.883,0.03,2.032,0.062,3.447,0.092
		c1.415,0.031,2.7,0.046,3.857,0.046c1.217,0,2.335-0.015,3.355-0.046c1.02-0.03,1.863-0.062,2.533-0.092l-0.229,0.913
		c-0.67,0.031-1.194,0.137-1.575,0.319c-0.38,0.183-0.7,0.549-0.958,1.096c-0.259,0.548-0.541,1.386-0.845,2.511l-2.419,9.039
		h-0.914c0.093-0.7,0.062-1.309-0.09-1.826c-0.153-0.517-0.473-0.776-0.959-0.776c-0.457,0-0.929,0.122-1.416,0.365
		c-0.487,0.244-1.065,0.533-1.734,0.867c-1.157,0.67-2.29,1.172-3.401,1.507s-2.305,0.502-3.582,0.502
		c-3.896,0-6.901-0.913-9.016-2.738c-2.116-1.827-3.174-4.398-3.174-7.715c0-2.07,0.327-4.185,0.982-6.346
		c0.653-2.16,1.604-4.245,2.853-6.254c1.247-2.009,2.738-3.804,4.475-5.387c1.733-1.582,3.697-2.837,5.887-3.766
		c2.192-0.929,4.551-1.392,7.076-1.392c1.979,0,3.507,0.289,4.588,0.866c1.08,0.578,2.046,1.278,2.898,2.101
		c0.456,0.456,0.883,0.532,1.278,0.228c0.396-0.304,0.837-1.156,1.324-2.556h1.004c-0.456,1.187-0.929,2.624-1.414,4.313
		c-0.487,1.689-0.99,3.751-1.507,6.185h-1.005c0.062-0.607,0.114-1.193,0.161-1.757c0.044-0.563,0.068-1.118,0.068-1.667
		c0-0.639-0.047-1.224-0.139-1.757c-0.091-0.532-0.259-1.058-0.501-1.574c-0.609-1.126-1.53-2.001-2.762-2.625
		c-1.232-0.623-2.656-0.937-4.269-0.937c-1.918,0-3.659,0.541-5.228,1.621c-1.567,1.081-2.943,2.511-4.131,4.291
		s-2.175,3.729-2.967,5.843c-0.793,2.116-1.393,4.23-1.803,6.346c-0.412,2.115-0.617,4.025-0.617,5.729
		c0,2.739,0.578,4.764,1.734,6.071C223.252,119.62,225.001,120.274,227.345,120.274z"/>
</g>
</svg>
