<?xml version="1.0" encoding="utf-8"?>
<!-- Generator: Adobe Illustrator 16.0.0, SVG Export Plug-In . SVG Version: 6.00 Build 0)  -->
<!DOCTYPE svg PUBLIC "-//W3C//DTD SVG 1.1//EN" "http://www.w3.org/Graphics/SVG/1.1/DTD/svg11.dtd">
<svg version="1.1" id="Layer_1" xmlns="http://www.w3.org/2000/svg" xmlns:xlink="http://www.w3.org/1999/xlink" x="0px" y="0px"
	 width="70.322px" height="70.325px" viewBox="0 0 70.322 70.325" enable-background="new 0 0 70.322 70.325" xml:space="preserve">
<path fill="#FFFFFF" d="M47.104,42.732c8.191-10.358,7.511-25.437-2.055-35.002c-10.306-10.306-27.014-10.306-37.32,0
	s-10.306,27.015,0,37.319c9.564,9.565,24.643,10.248,35.001,2.057l23.218,23.219l4.374-4.373L47.104,42.732z M11.044,41.736
	c-8.475-8.476-8.476-22.216,0-30.69c8.475-8.475,22.218-8.477,30.692-0.001c8.475,8.475,8.473,22.218-0.001,30.692
	C33.259,50.211,19.519,50.211,11.044,41.736z"/>
</svg>
